<mxfile host="app.diagrams.net" modified="2022-03-07T16:32:25.060Z" agent="5.0 (Windows)" etag="xtaC8N1RtE2Z2LC2cmrB" version="15.6.8" type="github">
  <diagram name="Page-1" id="1622d65d-c77d-c4b6-e0e7-3c11208c8684">
    <mxGraphModel dx="1422" dy="752" grid="1" gridSize="10" guides="1" tooltips="1" connect="1" arrows="1" fold="1" page="1" pageScale="1.5" pageWidth="1169" pageHeight="826" background="none" math="0" shadow="0">
      <root>
        <mxCell id="0" style=";html=1;" />
        <mxCell id="1" style=";html=1;" parent="0" />
        <mxCell id="869962fe87da545-3" value="" style="whiteSpace=wrap;html=1;rounded=0;shadow=0;dashed=0;strokeWidth=1;fontFamily=Tahoma;fontSize=10;fontColor=#FFFFFF;strokeColor=none;fillColor=#7FB61A;gradientColor=#1B622A;gradientDirection=west;" parent="1" vertex="1">
          <mxGeometry x="1360" y="210" width="240" height="180" as="geometry" />
        </mxCell>
        <mxCell id="869962fe87da545-4" value="" style="verticalLabelPosition=bottom;verticalAlign=top;html=1;strokeWidth=1;shape=mxgraph.basic.orthogonal_triangle;rounded=0;shadow=0;dashed=0;fontFamily=Tahoma;fontSize=10;fontColor=#FFFFFF;flipV=1;fillColor=#000000;strokeColor=none;opacity=50;" parent="1" vertex="1">
          <mxGeometry x="1360" y="350" width="140" height="40" as="geometry" />
        </mxCell>
        <mxCell id="869962fe87da545-6" value="" style="whiteSpace=wrap;html=1;rounded=0;shadow=0;dashed=0;strokeWidth=1;fontFamily=Tahoma;fontSize=10;fontColor=#FFFFFF;strokeColor=none;fillColor=#5398DB;gradientColor=#1247B9;gradientDirection=west;" parent="1" vertex="1">
          <mxGeometry x="1370" y="470" width="240" height="180" as="geometry" />
        </mxCell>
        <mxCell id="869962fe87da545-7" value="" style="verticalLabelPosition=bottom;verticalAlign=top;html=1;strokeWidth=1;shape=mxgraph.basic.orthogonal_triangle;rounded=0;shadow=0;dashed=0;fontFamily=Tahoma;fontSize=10;fontColor=#FFFFFF;flipV=1;fillColor=#000000;strokeColor=none;opacity=50;" parent="1" vertex="1">
          <mxGeometry x="1370" y="610" width="140" height="40" as="geometry" />
        </mxCell>
        <mxCell id="869962fe87da545-9" value="" style="whiteSpace=wrap;html=1;rounded=0;shadow=0;dashed=0;strokeWidth=1;fontFamily=Tahoma;fontSize=10;fontColor=#FFFFFF;strokeColor=none;fillColor=#8D029D;gradientColor=#65009E;gradientDirection=west;" parent="1" vertex="1">
          <mxGeometry x="1370" y="720" width="240" height="180" as="geometry" />
        </mxCell>
        <mxCell id="869962fe87da545-10" value="" style="verticalLabelPosition=bottom;verticalAlign=top;html=1;strokeWidth=1;shape=mxgraph.basic.orthogonal_triangle;rounded=0;shadow=0;dashed=0;fontFamily=Tahoma;fontSize=10;fontColor=#FFFFFF;flipV=1;fillColor=#000000;strokeColor=none;opacity=50;" parent="1" vertex="1">
          <mxGeometry x="1370" y="860" width="140" height="40" as="geometry" />
        </mxCell>
        <mxCell id="869962fe87da545-12" value="" style="whiteSpace=wrap;html=1;rounded=0;shadow=0;dashed=0;strokeWidth=1;fontFamily=Tahoma;fontSize=10;fontColor=#FFFFFF;strokeColor=none;fillColor=#F19001;gradientColor=#C23603;gradientDirection=west;" parent="1" vertex="1">
          <mxGeometry x="1370" y="970" width="240" height="180" as="geometry" />
        </mxCell>
        <mxCell id="869962fe87da545-13" value="" style="verticalLabelPosition=bottom;verticalAlign=top;html=1;strokeWidth=1;shape=mxgraph.basic.orthogonal_triangle;rounded=0;shadow=0;dashed=0;fontFamily=Tahoma;fontSize=10;fontColor=#FFFFFF;flipV=1;fillColor=#000000;strokeColor=none;opacity=50;" parent="1" vertex="1">
          <mxGeometry x="1370" y="1110" width="140" height="40" as="geometry" />
        </mxCell>
        <mxCell id="869962fe87da545-5" value="Les étapes d&#39;une enquête" style="whiteSpace=wrap;html=1;rounded=0;shadow=0;dashed=0;strokeWidth=1;fillColor=#E6E6E6;fontFamily=Verdana;fontSize=70;strokeColor=none;verticalAlign=top;spacingTop=10;" parent="1" vertex="1">
          <mxGeometry x="60" y="30" width="1360" height="1160" as="geometry" />
        </mxCell>
        <mxCell id="869962fe87da545-2" value="" style="html=1;shadow=0;dashed=0;align=center;verticalAlign=middle;shape=mxgraph.arrows2.arrow;dy=0;dx=0;notch=30;rounded=0;strokeColor=none;strokeWidth=1;fillColor=#7FB61A;fontFamily=Tahoma;fontSize=10;fontColor=#FFFFFF;gradientColor=#1B622A;gradientDirection=east;" parent="1" vertex="1">
          <mxGeometry x="290" y="170" width="1210" height="180" as="geometry" />
        </mxCell>
        <mxCell id="869962fe87da545-8" value="" style="html=1;shadow=0;dashed=0;align=center;verticalAlign=middle;shape=mxgraph.arrows2.arrow;dy=0;dx=0;notch=30;rounded=0;strokeColor=none;strokeWidth=1;fillColor=#5398DB;fontFamily=Tahoma;fontSize=10;fontColor=#FFFFFF;gradientColor=#1247B9;gradientDirection=east;" parent="1" vertex="1">
          <mxGeometry x="300" y="430" width="1210" height="180" as="geometry" />
        </mxCell>
        <mxCell id="869962fe87da545-11" value="" style="html=1;shadow=0;dashed=0;align=center;verticalAlign=middle;shape=mxgraph.arrows2.arrow;dy=0;dx=0;notch=30;rounded=0;strokeColor=none;strokeWidth=1;fillColor=#8D029D;fontFamily=Tahoma;fontSize=10;fontColor=#FFFFFF;gradientColor=#65009E;gradientDirection=east;" parent="1" vertex="1">
          <mxGeometry x="300" y="680" width="1210" height="180" as="geometry" />
        </mxCell>
        <mxCell id="869962fe87da545-14" value="" style="html=1;shadow=0;dashed=0;align=center;verticalAlign=middle;shape=mxgraph.arrows2.arrow;dy=0;dx=0;notch=30;rounded=0;strokeColor=none;strokeWidth=1;fillColor=#F19001;fontFamily=Tahoma;fontSize=10;fontColor=#FFFFFF;gradientColor=#C23603;gradientDirection=east;" parent="1" vertex="1">
          <mxGeometry x="300" y="930" width="1210" height="180" as="geometry" />
        </mxCell>
        <mxCell id="869962fe87da545-19" value="1" style="text;html=1;strokeColor=none;fillColor=none;align=right;verticalAlign=middle;whiteSpace=wrap;rounded=0;shadow=0;dashed=0;fontFamily=Helvetica;fontSize=150;fontColor=#FFFFFF;" parent="1" vertex="1">
          <mxGeometry x="320" y="170" width="200" height="180" as="geometry" />
        </mxCell>
        <mxCell id="869962fe87da545-20" value="2" style="text;html=1;strokeColor=none;fillColor=none;align=right;verticalAlign=middle;whiteSpace=wrap;rounded=0;shadow=0;dashed=0;fontFamily=Helvetica;fontSize=150;fontColor=#FFFFFF;" parent="1" vertex="1">
          <mxGeometry x="330" y="430" width="200" height="180" as="geometry" />
        </mxCell>
        <mxCell id="869962fe87da545-21" value="3" style="text;html=1;strokeColor=none;fillColor=none;align=right;verticalAlign=middle;whiteSpace=wrap;rounded=0;shadow=0;dashed=0;fontFamily=Helvetica;fontSize=150;fontColor=#FFFFFF;" parent="1" vertex="1">
          <mxGeometry x="330" y="680" width="200" height="180" as="geometry" />
        </mxCell>
        <mxCell id="869962fe87da545-22" value="4" style="text;html=1;strokeColor=none;fillColor=none;align=right;verticalAlign=middle;whiteSpace=wrap;rounded=0;shadow=0;dashed=0;fontFamily=Helvetica;fontSize=150;fontColor=#FFFFFF;" parent="1" vertex="1">
          <mxGeometry x="330" y="930" width="200" height="180" as="geometry" />
        </mxCell>
        <mxCell id="869962fe87da545-24" value="" style="line;strokeWidth=4;direction=south;html=1;rounded=0;shadow=0;dashed=0;fillColor=none;gradientColor=#AD0002;fontFamily=Helvetica;fontSize=150;fontColor=#FFFFFF;align=right;strokeColor=#FFFFFF;" parent="1" vertex="1">
          <mxGeometry x="540" y="180" width="10" height="160" as="geometry" />
        </mxCell>
        <mxCell id="869962fe87da545-25" value="" style="line;strokeWidth=4;direction=south;html=1;rounded=0;shadow=0;dashed=0;fillColor=none;gradientColor=#AD0002;fontFamily=Helvetica;fontSize=150;fontColor=#FFFFFF;align=right;strokeColor=#FFFFFF;" parent="1" vertex="1">
          <mxGeometry x="540" y="440" width="10" height="160" as="geometry" />
        </mxCell>
        <mxCell id="869962fe87da545-26" value="" style="line;strokeWidth=4;direction=south;html=1;rounded=0;shadow=0;dashed=0;fillColor=none;gradientColor=#AD0002;fontFamily=Helvetica;fontSize=150;fontColor=#FFFFFF;align=right;strokeColor=#FFFFFF;" parent="1" vertex="1">
          <mxGeometry x="540" y="690" width="10" height="160" as="geometry" />
        </mxCell>
        <mxCell id="869962fe87da545-27" value="" style="line;strokeWidth=4;direction=south;html=1;rounded=0;shadow=0;dashed=0;fillColor=none;gradientColor=#AD0002;fontFamily=Helvetica;fontSize=150;fontColor=#FFFFFF;align=right;strokeColor=#FFFFFF;" parent="1" vertex="1">
          <mxGeometry x="540" y="940" width="10" height="160" as="geometry" />
        </mxCell>
        <mxCell id="869962fe87da545-29" value="&lt;h1&gt;Concevoir le questionnaire&lt;br&gt;&lt;/h1&gt;&lt;p&gt;Décrire un questionnaire&lt;/p&gt;&lt;p&gt;Ecrire des filtres et contrôles&lt;br&gt;&lt;/p&gt;" style="text;html=1;strokeColor=none;fillColor=none;spacing=5;spacingTop=-20;whiteSpace=wrap;overflow=hidden;rounded=0;shadow=0;dashed=0;fontFamily=Helvetica;fontSize=12;fontColor=#FFFFFF;align=left;" parent="1" vertex="1">
          <mxGeometry x="580" y="190" width="670" height="140" as="geometry" />
        </mxCell>
        <mxCell id="869962fe87da545-30" value="&lt;p style=&quot;line-height: 1.2&quot;&gt;&lt;/p&gt;&lt;h1&gt;Préparer la collecte&lt;br&gt;&lt;/h1&gt;&lt;p&gt;Préparer un échantillon&lt;/p&gt;&lt;p&gt;Affecter des enquêteurs&lt;/p&gt;&lt;p&gt;Intégrer l&#39;enquête sur la plateforme de collecte&lt;/p&gt;&lt;p&gt;Envoyer des mails et courriers&lt;br&gt;&lt;/p&gt;&lt;p&gt;&lt;/p&gt;" style="text;html=1;strokeColor=none;fillColor=none;spacing=5;spacingTop=-20;whiteSpace=wrap;overflow=hidden;rounded=0;shadow=0;dashed=0;fontFamily=Helvetica;fontSize=12;fontColor=#FFFFFF;align=left;" parent="1" vertex="1">
          <mxGeometry x="580" y="450" width="670" height="150" as="geometry" />
        </mxCell>
        <mxCell id="869962fe87da545-31" value="&lt;h1&gt;Collecter&lt;/h1&gt;&lt;p&gt;&lt;br&gt;&lt;/p&gt;" style="text;html=1;strokeColor=none;fillColor=none;spacing=5;spacingTop=-20;whiteSpace=wrap;overflow=hidden;rounded=0;shadow=0;dashed=0;fontFamily=Helvetica;fontSize=12;fontColor=#FFFFFF;align=left;" parent="1" vertex="1">
          <mxGeometry x="580" y="700" width="670" height="140" as="geometry" />
        </mxCell>
        <mxCell id="869962fe87da545-32" value="&lt;h1&gt;Traiter les données&lt;br&gt;&lt;/h1&gt;&lt;p&gt;Réconcilier et mettre en forme les données collectées&lt;br&gt;&lt;/p&gt;&lt;p&gt;Traiter les données de gestion, les paradonnées&lt;br&gt;&lt;/p&gt;" style="text;html=1;strokeColor=none;fillColor=none;spacing=5;spacingTop=-20;whiteSpace=wrap;overflow=hidden;rounded=0;shadow=0;dashed=0;fontFamily=Helvetica;fontSize=12;fontColor=#FFFFFF;align=left;" parent="1" vertex="1">
          <mxGeometry x="580" y="950" width="670" height="140" as="geometry" />
        </mxCell>
      </root>
    </mxGraphModel>
  </diagram>
</mxfile>
